RobotoAvar2-XOPQ2-opsz144.ufo
<glyph name="exclam" format="2">
  <advance width="422"/>
  <unicode hex="0021"/>
  <outline>
    <contour>
      <point x="186" y="15" type="qcurve" smooth="yes"/>
      <point x="186" y="25"/>
      <point x="198" y="39"/>
      <point x="211" y="39" type="qcurve" smooth="yes"/>
      <point x="224" y="39"/>
      <point x="236" y="25"/>
      <point x="236" y="15" type="qcurve" smooth="yes"/>
      <point x="236" y="5"/>
      <point x="224" y="-9"/>
      <point x="211" y="-9" type="qcurve" smooth="yes"/>
      <point x="198" y="-9"/>
      <point x="186" y="5"/>
    </contour>
    <contour>
      <point x="208" y="410" type="line"/>
      <point x="208" y="1456" type="line"/>
      <point x="215" y="1456" type="line"/>
      <point x="215" y="410" type="line"/>
    </contour>
  </outline>
</glyph>
<glyph name="quotedbl" format="2">
  <advance width="760"/>
  <unicode hex="0022"/>
  <outline>
    <contour>
      <point x="187" y="966" type="line"/>
      <point x="187" y="1320" type="line"/>
      <point x="187" y="1456" type="line"/>
      <point x="194" y="1456" type="line"/>
      <point x="194" y="1320" type="line"/>
      <point x="194" y="966" type="line"/>
    </contour>
    <contour>
      <point x="566" y="966" type="line"/>
      <point x="566" y="1320" type="line"/>
      <point x="566" y="1456" type="line"/>
      <point x="573" y="1456" type="line"/>
      <point x="573" y="1320" type="line"/>
      <point x="573" y="966" type="line"/>
    </contour>
  </outline>
</glyph>
<glyph name="parenleft" format="2">
  <advance width="512"/>
  <unicode hex="0028"/>
  <outline>
    <contour>
      <point x="476" y="-436" type="line"/>
      <point x="344" y="-340"/>
      <point x="124" y="120"/>
      <point x="124" y="515" type="qcurve" smooth="yes"/>
      <point x="124" y="525" type="line" smooth="yes"/>
      <point x="124" y="937"/>
      <point x="344" y="1380"/>
      <point x="476" y="1476" type="qcurve"/>
      <point x="476" y="1469" type="line"/>
      <point x="348" y="1375"/>
      <point x="131" y="936"/>
      <point x="131" y="532" type="qcurve" smooth="yes"/>
      <point x="131" y="508" type="line" smooth="yes"/>
      <point x="131" y="121"/>
      <point x="349" y="-336"/>
      <point x="476" y="-429" type="qcurve"/>
    </contour>
  </outline>
</glyph>
<glyph name="three" format="2">
  <advance width="956"/>
  <unicode hex="0033"/>
  <outline>
    <contour>
      <point x="78" y="380" type="qcurve" smooth="yes"/>
      <point x="78" y="390" type="line"/>
      <point x="85" y="390" type="line"/>
      <point x="85" y="380" type="line" smooth="yes"/>
      <point x="85" y="273"/>
      <point x="275" y="128"/>
      <point x="471" y="128" type="qcurve"/>
      <point x="665" y="128"/>
      <point x="855" y="278"/>
      <point x="855" y="400" type="qcurve" smooth="yes"/>
      <point x="855" y="551"/>
      <point x="661" y="682"/>
      <point x="443" y="682" type="qcurve" smooth="yes"/>
      <point x="299" y="682" type="line"/>
      <point x="299" y="836" type="line"/>
      <point x="431" y="836" type="line" smooth="yes"/>
      <point x="611" y="836"/>
      <point x="792" y="956"/>
      <point x="792" y="1100" type="qcurve" smooth="yes"/>
      <point x="792" y="1210"/>
      <point x="631" y="1328"/>
      <point x="471" y="1328" type="qcurve"/>
      <point x="338" y="1328"/>
      <point x="136" y="1209"/>
      <point x="136" y="1100" type="qcurve" smooth="yes"/>
      <point x="136" y="1090" type="line"/>
      <point x="128" y="1090" type="line"/>
      <point x="128" y="1100" type="line" smooth="yes"/>
      <point x="128" y="1274"/>
      <point x="333" y="1486"/>
      <point x="471" y="1486" type="qcurve"/>
      <point x="633" y="1486"/>
      <point x="799" y="1284"/>
      <point x="799" y="1100" type="qcurve" smooth="yes"/>
      <point x="799" y="984"/>
      <point x="663" y="785"/>
      <point x="508" y="765" type="qcurve"/>
      <point x="508" y="761" type="line"/>
      <point x="694" y="749"/>
      <point x="862" y="536"/>
      <point x="862" y="400" type="qcurve" smooth="yes"/>
      <point x="862" y="205"/>
      <point x="668" y="-30"/>
      <point x="471" y="-30" type="qcurve"/>
      <point x="272" y="-30"/>
      <point x="78" y="199"/>
    </contour>
  </outline>
</glyph>
<glyph name="six" format="2">
  <advance width="956"/>
  <unicode hex="0036"/>
  <outline>
    <contour>
      <point x="88" y="614" type="qcurve" smooth="yes"/>
      <point x="88" y="644" type="line" smooth="yes"/>
      <point x="88" y="981"/>
      <point x="485" y="1487"/>
      <point x="780" y="1487" type="qcurve" smooth="yes"/>
      <point x="801" y="1487" type="line"/>
      <point x="801" y="1329" type="line"/>
      <point x="781" y="1329" type="line" smooth="yes"/>
      <point x="501" y="1329"/>
      <point x="95" y="973"/>
      <point x="95" y="644" type="qcurve" smooth="yes"/>
      <point x="95" y="614" type="line" smooth="yes"/>
      <point x="95" y="337"/>
      <point x="311" y="128"/>
      <point x="503" y="128" type="qcurve" smooth="yes"/>
      <point x="693" y="128"/>
      <point x="877" y="292"/>
      <point x="877" y="454" type="qcurve" smooth="yes"/>
      <point x="877" y="613"/>
      <point x="693" y="798"/>
      <point x="501" y="798" type="qcurve"/>
      <point x="323" y="798"/>
      <point x="101" y="609"/>
      <point x="102" y="458" type="qcurve"/>
      <point x="95" y="458" type="line"/>
      <point x="94" y="670"/>
      <point x="360" y="956"/>
      <point x="541" y="956" type="qcurve"/>
      <point x="732" y="956"/>
      <point x="884" y="681"/>
      <point x="884" y="454" type="qcurve" smooth="yes"/>
      <point x="884" y="228"/>
      <point x="693" y="-30"/>
      <point x="503" y="-30" type="qcurve" smooth="yes"/>
      <point x="308" y="-30"/>
      <point x="88" y="279"/>
    </contour>
  </outline>
</glyph>
<glyph name="question" format="2">
  <advance width="609"/>
  <unicode hex="003F"/>
  <outline>
    <contour>
      <point x="236" y="15" type="qcurve" smooth="yes"/>
      <point x="236" y="25"/>
      <point x="249" y="39"/>
      <point x="261" y="39" type="qcurve" smooth="yes"/>
      <point x="273" y="39"/>
      <point x="286" y="25"/>
      <point x="286" y="15" type="qcurve" smooth="yes"/>
      <point x="286" y="5"/>
      <point x="273" y="-9"/>
      <point x="261" y="-9" type="qcurve" smooth="yes"/>
      <point x="249" y="-9"/>
      <point x="236" y="5"/>
    </contour>
    <contour>
      <point x="60" y="1095" type="line"/>
      <point x="60" y="1115" type="line" smooth="yes"/>
      <point x="60" y="1276"/>
      <point x="181" y="1476"/>
      <point x="290" y="1476" type="qcurve" smooth="yes"/>
      <point x="402" y="1476"/>
      <point x="515" y="1270"/>
      <point x="515" y="1100" type="qcurve" smooth="yes"/>
      <point x="515" y="968"/>
      <point x="450" y="836"/>
      <point x="369" y="755" type="qcurve" smooth="yes"/>
      <point x="300" y="686"/>
      <point x="260" y="575"/>
      <point x="260" y="480" type="qcurve" smooth="yes"/>
      <point x="260" y="410" type="line"/>
      <point x="253" y="410" type="line"/>
      <point x="253" y="480" type="line" smooth="yes"/>
      <point x="253" y="575"/>
      <point x="291" y="684"/>
      <point x="363" y="759" type="qcurve" smooth="yes"/>
      <point x="446" y="842"/>
      <point x="508" y="969"/>
      <point x="508" y="1100" type="qcurve" smooth="yes"/>
      <point x="508" y="1206"/>
      <point x="399" y="1314"/>
      <point x="292" y="1314" type="qcurve" smooth="yes"/>
      <point x="182" y="1314"/>
      <point x="67" y="1210"/>
      <point x="67" y="1115" type="qcurve" smooth="yes"/>
      <point x="67" y="1095" type="line"/>
    </contour>
  </outline>
</glyph>
<glyph name="A" format="2">
  <advance width="858"/>
  <unicode hex="0041"/>
  <anchor x="419" y="0" name="bottom"/>
  <anchor x="938" y="0" name="ogonek"/>
  <anchor x="419" y="1456" name="top"/>
  <anchor x="-24" y="1074" name="tonos"/>
  <outline>
    <contour>
      <point x="0" y="0" type="line"/>
      <point x="423" y="1464" type="line"/>
      <point x="431" y="1464" type="line"/>
      <point x="858" y="0" type="line"/>
      <point x="851" y="0" type="line"/>
      <point x="459" y="1344" type="line" smooth="yes"/>
      <point x="450" y="1376"/>
      <point x="434" y="1430"/>
      <point x="428" y="1451" type="qcurve"/>
      <point x="426" y="1451" type="line"/>
      <point x="420" y="1430"/>
      <point x="405" y="1376"/>
      <point x="396" y="1344" type="qcurve" smooth="yes"/>
      <point x="7" y="0" type="line"/>
    </contour>
    <contour>
      <point x="117" y="380" type="line"/>
      <point x="162" y="538" type="line"/>
      <point x="700" y="538" type="line"/>
      <point x="745" y="380" type="line"/>
    </contour>
  </outline>
</glyph>
<glyph name="B" format="2">
  <advance width="932"/>
  <unicode hex="0042"/>
  <anchor x="434" y="0" name="bottom"/>
  <anchor x="434" y="1456" name="top"/>
  <outline>
    <contour>
      <point x="170" y="0" type="line"/>
      <point x="170" y="1456" type="line"/>
      <point x="453" y="1456" type="line" smooth="yes"/>
      <point x="593" y="1456"/>
      <point x="794" y="1270"/>
      <point x="794" y="1070" type="qcurve" smooth="yes"/>
      <point x="794" y="952"/>
      <point x="662" y="790"/>
      <point x="560" y="768" type="qcurve"/>
      <point x="560" y="764" type="line"/>
      <point x="682" y="747"/>
      <point x="832" y="550"/>
      <point x="832" y="420" type="qcurve" smooth="yes"/>
      <point x="832" y="220"/>
      <point x="683" y="0"/>
      <point x="509" y="0" type="qcurve" smooth="yes"/>
    </contour>
    <contour>
      <point x="177" y="158" type="line"/>
      <point x="509" y="158" type="line" smooth="yes"/>
      <point x="659" y="158"/>
      <point x="825" y="300"/>
      <point x="825" y="420" type="qcurve" smooth="yes"/>
      <point x="825" y="561"/>
      <point x="656" y="680"/>
      <point x="509" y="680" type="qcurve" smooth="yes"/>
      <point x="174" y="680" type="line"/>
      <point x="174" y="836" type="line"/>
      <point x="479" y="836" type="line" smooth="yes"/>
      <point x="627" y="836"/>
      <point x="787" y="933"/>
      <point x="787" y="1070" type="qcurve" smooth="yes"/>
      <point x="787" y="1180"/>
      <point x="609" y="1298"/>
      <point x="453" y="1298" type="qcurve" smooth="yes"/>
      <point x="177" y="1298" type="line"/>
    </contour>
  </outline>
</glyph>
<glyph name="C" format="2">
  <advance width="1015"/>
  <unicode hex="0043"/>
  <anchor x="529" y="0" name="bottom"/>
  <anchor x="539" y="1456" name="top"/>
  <outline>
    <contour>
      <point x="115" y="682" type="qcurve" smooth="yes"/>
      <point x="115" y="774" type="line" smooth="yes"/>
      <point x="115" y="1104"/>
      <point x="341" y="1486"/>
      <point x="539" y="1486" type="qcurve" smooth="yes"/>
      <point x="722" y="1486"/>
      <point x="931" y="1206"/>
      <point x="931" y="1000" type="qcurve" smooth="yes"/>
      <point x="931" y="990" type="line"/>
      <point x="924" y="990" type="line"/>
      <point x="924" y="1000" type="line" smooth="yes"/>
      <point x="924" y="1142"/>
      <point x="717" y="1322"/>
      <point x="539" y="1322" type="qcurve" smooth="yes"/>
      <point x="355" y="1322"/>
      <point x="123" y="1052"/>
      <point x="123" y="774" type="qcurve" smooth="yes"/>
      <point x="123" y="682" type="line" smooth="yes"/>
      <point x="123" y="425"/>
      <point x="354" y="134"/>
      <point x="551" y="134" type="qcurve" smooth="yes"/>
      <point x="724" y="134"/>
      <point x="909" y="319"/>
      <point x="923" y="456" type="qcurve" smooth="yes"/>
      <point x="924" y="466" type="line"/>
      <point x="931" y="466" type="line"/>
      <point x="930" y="456" type="line" smooth="yes"/>
      <point x="909" y="245"/>
      <point x="736" y="-30"/>
      <point x="551" y="-30" type="qcurve" smooth="yes"/>
      <point x="344" y="-30"/>
      <point x="115" y="354"/>
    </contour>
  </outline>
</glyph>
<glyph name="D" format="2">
  <advance width="1016"/>
  <unicode hex="0044"/>
  <anchor x="478" y="0" name="bottom"/>
  <anchor x="174" y="728" name="center"/>
  <anchor x="475" y="1456" name="top"/>
  <outline>
    <contour>
      <point x="170" y="0" type="line"/>
      <point x="170" y="1456" type="line"/>
      <point x="417" y="1456" type="line" smooth="yes"/>
      <point x="638" y="1456"/>
      <point x="901" y="1072"/>
      <point x="901" y="774" type="qcurve" smooth="yes"/>
      <point x="901" y="682" type="line" smooth="yes"/>
      <point x="901" y="370"/>
      <point x="637" y="0"/>
      <point x="417" y="0" type="qcurve" smooth="yes"/>
    </contour>
    <contour>
      <point x="177" y="158" type="line"/>
      <point x="417" y="158" type="line" smooth="yes"/>
      <point x="627" y="158"/>
      <point x="894" y="436"/>
      <point x="894" y="682" type="qcurve" smooth="yes"/>
      <point x="894" y="774" type="line" smooth="yes"/>
      <point x="894" y="1017"/>
      <point x="625" y="1298"/>
      <point x="417" y="1298" type="qcurve" smooth="yes"/>
      <point x="177" y="1298" type="line"/>
    </contour>
  </outline>
</glyph>
<glyph name="K" format="2">
  <advance width="1135"/>
  <unicode hex="004B"/>
  <anchor x="636" y="0" name="bottom"/>
  <anchor x="636" y="1456" name="top"/>
  <outline>
    <contour>
      <point x="170" y="0" type="line"/>
      <point x="170" y="1456" type="line"/>
      <point x="177" y="1456" type="line"/>
      <point x="177" y="0" type="line"/>
    </contour>
    <contour>
      <point x="1159" y="0" type="line"/>
      <point x="506" y="878" type="line"/>
      <point x="512" y="882" type="line"/>
      <point x="1168" y="0" type="line"/>
    </contour>
    <contour>
      <point x="175" y="396" type="line"/>
      <point x="175" y="636" type="line"/>
      <point x="917" y="1456" type="line"/>
      <point x="1149" y="1456" type="line"/>
    </contour>
  </outline>
</glyph>
<glyph name="L" format="2">
  <advance width="921"/>
  <unicode hex="004C"/>
  <anchor x="543" y="0" name="bottom"/>
  <anchor x="651" y="728" name="center"/>
  <anchor x="175" y="1456" name="top"/>
  <anchor x="540" y="1052" name="topright"/>
  <outline>
    <contour>
      <point x="170" y="0" type="line"/>
      <point x="170" y="1456" type="line"/>
      <point x="177" y="1456" type="line"/>
      <point x="177" y="158" type="line"/>
      <point x="867" y="158" type="line"/>
      <point x="867" y="0" type="line"/>
    </contour>
  </outline>
</glyph>
<glyph name="M" format="2">
  <advance width="1436"/>
  <unicode hex="004D"/>
  <anchor x="718" y="0" name="bottom"/>
  <anchor x="718" y="1456" name="top"/>
  <outline>
    <contour>
      <point x="170" y="0" type="line"/>
      <point x="170" y="1456" type="line"/>
      <point x="177" y="1456" type="line"/>
      <point x="668" y="144" type="line" smooth="yes"/>
      <point x="679" y="114"/>
      <point x="707" y="40"/>
      <point x="718" y="10" type="qcurve"/>
      <point x="718" y="10" type="line"/>
      <point x="729" y="40"/>
      <point x="758" y="117"/>
      <point x="769" y="147" type="qcurve" smooth="yes"/>
      <point x="1259" y="1456" type="line"/>
      <point x="1266" y="1456" type="line"/>
      <point x="1266" y="0" type="line"/>
      <point x="1259" y="0" type="line"/>
      <point x="1259" y="1304" type="line" smooth="yes"/>
      <point x="1259" y="1334"/>
      <point x="1259" y="1409"/>
      <point x="1259" y="1438" type="qcurve"/>
      <point x="1259" y="1438" type="line"/>
      <point x="1250" y="1415"/>
      <point x="1222" y="1337"/>
      <point x="1211" y="1307" type="qcurve" smooth="yes"/>
      <point x="721" y="0" type="line"/>
      <point x="715" y="0" type="line"/>
      <point x="236" y="1280" type="line" smooth="yes"/>
      <point x="224" y="1311"/>
      <point x="188" y="1408"/>
      <point x="177" y="1438" type="qcurve"/>
      <point x="177" y="1438" type="line"/>
      <point x="177" y="1407"/>
      <point x="177" y="1309"/>
      <point x="177" y="1279" type="qcurve" smooth="yes"/>
      <point x="177" y="0" type="line"/>
    </contour>
  </outline>
</glyph>
<glyph name="N" format="2">
  <advance width="1098"/>
  <unicode hex="004E"/>
  <anchor x="560" y="0" name="bottom"/>
  <anchor x="560" y="1456" name="top"/>
  <anchor x="924" y="0" name="engtail"/>
  <outline>
    <contour>
      <point x="170" y="0" type="line"/>
      <point x="170" y="1456" type="line"/>
      <point x="180" y="1456" type="line"/>
      <point x="862" y="122" type="line" smooth="yes"/>
      <point x="878" y="90"/>
      <point x="908" y="32"/>
      <point x="921" y="7" type="qcurve"/>
      <point x="921" y="7" type="line"/>
      <point x="921" y="37"/>
      <point x="921" y="112"/>
      <point x="921" y="142" type="qcurve" smooth="yes"/>
      <point x="921" y="1456" type="line"/>
      <point x="928" y="1456" type="line"/>
      <point x="928" y="0" type="line"/>
      <point x="917" y="0" type="line"/>
      <point x="234" y="1334" type="line" smooth="yes"/>
      <point x="218" y="1366"/>
      <point x="189" y="1424"/>
      <point x="177" y="1449" type="qcurve"/>
      <point x="177" y="1449" type="line"/>
      <point x="177" y="1419"/>
      <point x="177" y="1344"/>
      <point x="177" y="1314" type="qcurve" smooth="yes"/>
      <point x="177" y="0" type="line"/>
    </contour>
  </outline>
</glyph>
<glyph name="O" format="2">
  <advance width="1076"/>
  <unicode hex="004F"/>
  <anchor x="538" y="0" name="bottom"/>
  <anchor x="538" y="728" name="center"/>
  <anchor x="676" y="0" name="ogonek"/>
  <anchor x="538" y="1456" name="top"/>
  <anchor x="675" y="1456" name="topright"/>
  <anchor x="-8" y="1074" name="tonos"/>
  <anchor x="114" y="750" name="yu_dash"/>
  <outline>
    <contour>
      <point x="115" y="682" type="qcurve" smooth="yes"/>
      <point x="115" y="774" type="line" smooth="yes"/>
      <point x="115" y="1110"/>
      <point x="347" y="1486"/>
      <point x="538" y="1486" type="qcurve" smooth="yes"/>
      <point x="729" y="1486"/>
      <point x="961" y="1110"/>
      <point x="961" y="774" type="qcurve" smooth="yes"/>
      <point x="961" y="682" type="line" smooth="yes"/>
      <point x="961" y="346"/>
      <point x="729" y="-30"/>
      <point x="538" y="-30" type="qcurve" smooth="yes"/>
      <point x="347" y="-30"/>
      <point x="115" y="346"/>
    </contour>
    <contour>
      <point x="122" y="682" type="line" smooth="yes"/>
      <point x="122" y="422"/>
      <point x="349" y="134"/>
      <point x="538" y="134" type="qcurve" smooth="yes"/>
      <point x="727" y="134"/>
      <point x="954" y="422"/>
      <point x="954" y="682" type="qcurve" smooth="yes"/>
      <point x="954" y="774" type="line" smooth="yes"/>
      <point x="954" y="1036"/>
      <point x="727" y="1322"/>
      <point x="538" y="1322" type="qcurve" smooth="yes"/>
      <point x="349" y="1322"/>
      <point x="122" y="1036"/>
      <point x="122" y="774" type="qcurve" smooth="yes"/>
    </contour>
  </outline>
</glyph>
<glyph name="Q" format="2">
  <advance width="1086"/>
  <unicode hex="0051"/>
  <anchor x="543" y="0" name="bottom"/>
  <anchor x="543" y="1456" name="top"/>
  <outline>
    <contour>
      <point x="115" y="682" type="qcurve" smooth="yes"/>
      <point x="115" y="774" type="line" smooth="yes"/>
      <point x="115" y="1110"/>
      <point x="352" y="1486"/>
      <point x="543" y="1486" type="qcurve" smooth="yes"/>
      <point x="734" y="1486"/>
      <point x="971" y="1110"/>
      <point x="971" y="774" type="qcurve" smooth="yes"/>
      <point x="971" y="682" type="line" smooth="yes"/>
      <point x="971" y="346"/>
      <point x="734" y="-30"/>
      <point x="543" y="-30" type="qcurve" smooth="yes"/>
      <point x="352" y="-30"/>
      <point x="115" y="346"/>
    </contour>
    <contour>
      <point x="122" y="682" type="line" smooth="yes"/>
      <point x="122" y="422"/>
      <point x="354" y="134"/>
      <point x="543" y="134" type="qcurve" smooth="yes"/>
      <point x="732" y="134"/>
      <point x="964" y="422"/>
      <point x="964" y="682" type="qcurve" smooth="yes"/>
      <point x="964" y="774" type="line" smooth="yes"/>
      <point x="964" y="1036"/>
      <point x="732" y="1322"/>
      <point x="543" y="1322" type="qcurve" smooth="yes"/>
      <point x="354" y="1322"/>
      <point x="122" y="1036"/>
      <point x="122" y="774" type="qcurve" smooth="yes"/>
    </contour>
    <contour>
      <point x="905" y="-181" type="line"/>
      <point x="487" y="230" type="line"/>
      <point x="491" y="235" type="line"/>
      <point x="909" y="-176" type="line"/>
    </contour>
  </outline>
</glyph>
<glyph name="S" format="2">
  <advance width="852"/>
  <unicode hex="0053"/>
  <anchor x="435" y="0" name="bottom"/>
  <anchor x="425" y="1456" name="top"/>
  <outline>
    <contour>
      <point x="90" y="398" type="qcurve" smooth="yes"/>
      <point x="90" y="410" type="line"/>
      <point x="97" y="410" type="line"/>
      <point x="97" y="398" type="line" smooth="yes"/>
      <point x="97" y="263"/>
      <point x="275" y="133"/>
      <point x="435" y="133" type="qcurve" smooth="yes"/>
      <point x="595" y="133"/>
      <point x="765" y="270"/>
      <point x="765" y="371" type="qcurve" smooth="yes"/>
      <point x="765" y="532"/>
      <point x="598" y="710"/>
      <point x="424" y="762" type="qcurve" smooth="yes"/>
      <point x="243" y="816"/>
      <point x="118" y="981"/>
      <point x="118" y="1095" type="qcurve" smooth="yes"/>
      <point x="118" y="1265"/>
      <point x="270" y="1486"/>
      <point x="425" y="1486" type="qcurve" smooth="yes"/>
      <point x="583" y="1486"/>
      <point x="742" y="1248"/>
      <point x="742" y="1064" type="qcurve" smooth="yes"/>
      <point x="742" y="1052" type="line"/>
      <point x="735" y="1052" type="line"/>
      <point x="735" y="1064" type="line" smooth="yes"/>
      <point x="735" y="1180"/>
      <point x="579" y="1323"/>
      <point x="425" y="1323" type="qcurve" smooth="yes"/>
      <point x="274" y="1323"/>
      <point x="125" y="1204"/>
      <point x="125" y="1095" type="qcurve" smooth="yes"/>
      <point x="125" y="982"/>
      <point x="251" y="821"/>
      <point x="427" y="768" type="qcurve" smooth="yes"/>
      <point x="603" y="716"/>
      <point x="772" y="535"/>
      <point x="772" y="371" type="qcurve" smooth="yes"/>
      <point x="772" y="186"/>
      <point x="598" y="-30"/>
      <point x="435" y="-30" type="qcurve" smooth="yes"/>
      <point x="273" y="-30"/>
      <point x="90" y="201"/>
    </contour>
  </outline>
</glyph>
<glyph name="V" format="2">
  <advance width="822"/>
  <unicode hex="0056"/>
  <anchor x="411" y="0" name="bottom"/>
  <anchor x="411" y="1456" name="top"/>
  <outline>
    <contour>
      <point x="0" y="1456" type="line"/>
      <point x="7" y="1456" type="line"/>
      <point x="369" y="154" type="line" smooth="yes"/>
      <point x="378" y="120"/>
      <point x="403" y="34"/>
      <point x="411" y="6" type="qcurve"/>
      <point x="411" y="6" type="line"/>
      <point x="419" y="34"/>
      <point x="442" y="116"/>
      <point x="453" y="154" type="qcurve" smooth="yes"/>
      <point x="815" y="1456" type="line"/>
      <point x="822" y="1456" type="line"/>
      <point x="414" y="-10" type="line"/>
      <point x="408" y="-10" type="line"/>
    </contour>
  </outline>
</glyph>
<glyph name="W" format="2">
  <advance width="1277"/>
  <unicode hex="0057"/>
  <anchor x="638" y="0" name="bottom"/>
  <anchor x="638" y="1456" name="top"/>
  <outline>
    <contour>
      <point x="338" y="-10" type="line"/>
      <point x="50" y="1456" type="line"/>
      <point x="57" y="1456" type="line"/>
      <point x="323" y="106" type="line" smooth="yes"/>
      <point x="330" y="72"/>
      <point x="338" y="29"/>
      <point x="343" y="4" type="qcurve"/>
      <point x="343" y="4" type="line"/>
      <point x="348" y="30"/>
      <point x="356" y="71"/>
      <point x="363" y="106" type="qcurve" smooth="yes"/>
      <point x="632" y="1456" type="line"/>
      <point x="644" y="1456" type="line"/>
      <point x="916" y="105" type="line" smooth="yes"/>
      <point x="923" y="70"/>
      <point x="930" y="36"/>
      <point x="936" y="3" type="qcurve"/>
      <point x="936" y="3" type="line"/>
      <point x="942" y="36"/>
      <point x="948" y="71"/>
      <point x="955" y="105" type="qcurve" smooth="yes"/>
      <point x="1220" y="1456" type="line"/>
      <point x="1227" y="1456" type="line"/>
      <point x="940" y="-10" type="line"/>
      <point x="931" y="-10" type="line"/>
      <point x="664" y="1321" type="line" smooth="yes"/>
      <point x="657" y="1356"/>
      <point x="645" y="1416"/>
      <point x="638" y="1449" type="qcurve"/>
      <point x="638" y="1449" type="line"/>
      <point x="631" y="1416"/>
      <point x="619" y="1355"/>
      <point x="612" y="1321" type="qcurve" smooth="yes"/>
      <point x="347" y="-10" type="line"/>
    </contour>
  </outline>
</glyph>
<glyph name="X" format="2">
  <advance width="736"/>
  <unicode hex="0058"/>
  <anchor x="369" y="0" name="bottom"/>
  <anchor x="369" y="1456" name="top"/>
  <anchor x="705" y="0" name="cy_descender"/>
  <outline>
    <contour>
      <point x="25" y="0" type="line"/>
      <point x="388" y="806" type="line"/>
      <point x="388" y="806" type="line"/>
      <point x="683" y="1456" type="line"/>
      <point x="691" y="1456" type="line"/>
      <point x="331" y="670" type="line"/>
      <point x="331" y="670" type="line"/>
      <point x="33" y="0" type="line"/>
    </contour>
    <contour>
      <point x="52" y="1456" type="line"/>
      <point x="60" y="1456" type="line"/>
      <point x="350" y="806" type="line"/>
      <point x="350" y="806" type="line"/>
      <point x="711" y="0" type="line"/>
      <point x="703" y="0" type="line"/>
      <point x="406" y="670" type="line"/>
      <point x="406" y="670" type="line"/>
    </contour>
  </outline>
</glyph>
<glyph name="Y" format="2">
  <advance width="784"/>
  <unicode hex="0059"/>
  <anchor x="391" y="0" name="bottom"/>
  <anchor x="391" y="1456" name="top"/>
  <anchor x="-316" y="1074" name="tonos"/>
  <outline>
    <contour>
      <point x="387" y="0" type="line"/>
      <point x="387" y="544" type="line"/>
      <point x="15" y="1456" type="line"/>
      <point x="22" y="1456" type="line"/>
      <point x="344" y="666" type="line" smooth="yes"/>
      <point x="357" y="635"/>
      <point x="377" y="586"/>
      <point x="391" y="552" type="qcurve"/>
      <point x="391" y="552" type="line"/>
      <point x="405" y="586"/>
      <point x="424" y="633"/>
      <point x="438" y="666" type="qcurve" smooth="yes"/>
      <point x="762" y="1456" type="line"/>
      <point x="769" y="1456" type="line"/>
      <point x="394" y="544" type="line"/>
      <point x="394" y="0" type="line"/>
    </contour>
  </outline>
</glyph>
<glyph name="d" format="2">
  <advance width="809"/>
  <unicode hex="0064"/>
  <anchor x="399.0" y="0" name="bottom"/>
  <anchor x="656.0" y="1313" name="center"/>
  <anchor x="359.0" y="1536" name="top"/>
  <anchor x="732.0" y="1052" name="topright"/>
  <outline>
    <contour>
      <point x="654" y="1536" type="line"/>
      <point x="661" y="1536" type="line"/>
      <point x="661" y="0" type="line"/>
      <point x="654" y="0" type="line"/>
      <point x="654" y="367" type="line"/>
      <point x="654" y="367" type="line"/>
    </contour>
    <contour>
      <point x="384" y="920" type="qcurve"/>
      <point x="233" y="920"/>
      <point x="92" y="703"/>
      <point x="92" y="542" type="qcurve" smooth="yes"/>
      <point x="92" y="510" type="line" smooth="yes"/>
      <point x="92" y="350"/>
      <point x="251" y="132"/>
      <point x="384" y="132" type="qcurve" smooth="yes"/>
      <point x="508" y="132"/>
      <point x="653" y="326"/>
      <point x="653" y="503" type="qcurve" smooth="yes"/>
      <point x="653" y="531" type="line" smooth="yes"/>
      <point x="653" y="704"/>
      <point x="489" y="920"/>
    </contour>
    <contour>
      <point x="344" y="1072" type="qcurve"/>
      <point x="518" y="1072"/>
      <point x="660" y="753"/>
      <point x="660" y="531" type="qcurve" smooth="yes"/>
      <point x="660" y="503" type="line" smooth="yes"/>
      <point x="660" y="265"/>
      <point x="518" y="-20"/>
      <point x="344" y="-20" type="qcurve"/>
      <point x="244" y="-20"/>
      <point x="85" y="273"/>
      <point x="85" y="510" type="qcurve" smooth="yes"/>
      <point x="85" y="542" type="line" smooth="yes"/>
      <point x="85" y="799"/>
      <point x="246" y="1072"/>
    </contour>
  </outline>
</glyph>
<glyph name="k" format="2">
  <advance width="695"/>
  <unicode hex="006B"/>
  <anchor x="447" y="0" name="bottom"/>
  <anchor x="447" y="1536" name="top"/>
  <outline>
    <contour>
      <point x="148" y="0" type="line"/>
      <point x="148" y="1536" type="line"/>
      <point x="155" y="1536" type="line"/>
      <point x="155" y="0" type="line"/>
    </contour>
    <contour>
      <point x="702" y="0" type="line"/>
      <point x="282" y="676" type="line"/>
      <point x="279" y="690" type="line"/>
      <point x="711" y="0" type="line"/>
    </contour>
    <contour>
      <point x="153" y="410" type="line"/>
      <point x="153" y="628" type="line"/>
      <point x="465" y="1052" type="line"/>
      <point x="661" y="1052" type="line"/>
    </contour>
  </outline>
</glyph>
<glyph name="s" format="2">
  <advance width="655"/>
  <unicode hex="0073"/>
  <anchor x="332" y="0" name="bottom"/>
  <anchor x="321" y="1052" name="top"/>
  <outline>
    <contour>
      <point x="80" y="310" type="line"/>
      <point x="87" y="310" type="line"/>
      <point x="87" y="305" type="line" smooth="yes"/>
      <point x="87" y="214"/>
      <point x="221" y="122"/>
      <point x="331" y="122" type="qcurve" smooth="yes"/>
      <point x="441" y="122"/>
      <point x="568" y="210"/>
      <point x="568" y="280" type="qcurve" smooth="yes"/>
      <point x="568" y="371"/>
      <point x="487" y="514"/>
      <point x="349" y="551" type="qcurve" smooth="yes"/>
      <point x="192" y="589"/>
      <point x="103" y="713"/>
      <point x="103" y="790" type="qcurve" smooth="yes"/>
      <point x="103" y="923"/>
      <point x="209" y="1082"/>
      <point x="321" y="1082" type="qcurve" smooth="yes"/>
      <point x="436" y="1082"/>
      <point x="543" y="914"/>
      <point x="543" y="769" type="qcurve" smooth="yes"/>
      <point x="543" y="760" type="line"/>
      <point x="536" y="760" type="line"/>
      <point x="536" y="769" type="line" smooth="yes"/>
      <point x="536" y="844"/>
      <point x="433" y="930"/>
      <point x="321" y="930" type="qcurve" smooth="yes"/>
      <point x="212" y="930"/>
      <point x="110" y="850"/>
      <point x="110" y="790" type="qcurve" smooth="yes"/>
      <point x="110" y="715"/>
      <point x="195" y="598"/>
      <point x="350" y="558" type="qcurve" smooth="yes"/>
      <point x="491" y="522"/>
      <point x="575" y="374"/>
      <point x="575" y="280" type="qcurve" smooth="yes"/>
      <point x="575" y="128"/>
      <point x="444" y="-30"/>
      <point x="331" y="-30" type="qcurve" smooth="yes"/>
      <point x="219" y="-30"/>
      <point x="80" y="130"/>
      <point x="80" y="305" type="qcurve" smooth="yes"/>
    </contour>
  </outline>
</glyph>
<glyph name="u" format="2">
  <advance width="780"/>
  <unicode hex="0075"/>
  <anchor x="379" y="0" name="bottom"/>
  <anchor x="629" y="0" name="ogonek"/>
  <anchor x="386" y="1052" name="top"/>
  <anchor x="628" y="1052" name="topright"/>
  <anchor x="627" y="0" name="cy_descender"/>
  <outline>
    <contour>
      <point x="321" y="-20" type="qcurve"/>
      <point x="231" y="-20"/>
      <point x="138" y="123"/>
      <point x="138" y="346" type="qcurve" smooth="yes"/>
      <point x="138" y="1052" type="line"/>
      <point x="145" y="1052" type="line"/>
      <point x="145" y="345" type="line" smooth="yes"/>
      <point x="145" y="251"/>
      <point x="257" y="136"/>
      <point x="362" y="136" type="qcurve"/>
      <point x="452" y="136"/>
      <point x="587" y="234"/>
      <point x="628" y="308" type="qcurve"/>
      <point x="628" y="136" type="line"/>
      <point x="573" y="63"/>
      <point x="412" y="-20"/>
    </contour>
    <contour>
      <point x="625" y="0" type="line"/>
      <point x="625" y="310" type="line"/>
      <point x="625" y="1052" type="line"/>
      <point x="632" y="1052" type="line"/>
      <point x="632" y="0" type="line"/>
    </contour>
  </outline>
</glyph>
<glyph name="v" format="2">
  <advance width="612"/>
  <unicode hex="0076"/>
  <anchor x="305" y="0" name="bottom"/>
  <anchor x="305" y="1052" name="top"/>
  <outline>
    <contour>
      <point x="0" y="1052" type="line"/>
      <point x="7" y="1052" type="line"/>
      <point x="270" y="137" type="line" smooth="yes"/>
      <point x="282" y="96"/>
      <point x="300" y="27"/>
      <point x="305" y="7" type="qcurve"/>
      <point x="305" y="7" type="line"/>
      <point x="310" y="27"/>
      <point x="329" y="96"/>
      <point x="341" y="137" type="qcurve" smooth="yes"/>
      <point x="605" y="1052" type="line"/>
      <point x="612" y="1052" type="line"/>
      <point x="309" y="0" type="line"/>
      <point x="301" y="0" type="line"/>
    </contour>
  </outline>
</glyph>
<glyph name="w" format="2">
  <advance width="1018"/>
  <unicode hex="0077"/>
  <anchor x="506" y="0" name="bottom"/>
  <anchor x="506" y="1052" name="top"/>
  <outline>
    <contour>
      <point x="25" y="1052" type="line"/>
      <point x="32" y="1052" type="line"/>
      <point x="225" y="141" type="line" smooth="yes"/>
      <point x="234" y="100"/>
      <point x="245" y="47"/>
      <point x="254" y="7" type="qcurve"/>
      <point x="254" y="7" type="line"/>
      <point x="264" y="47"/>
      <point x="278" y="102"/>
      <point x="287" y="141" type="qcurve" smooth="yes"/>
      <point x="501" y="1052" type="line"/>
      <point x="511" y="1052" type="line"/>
      <point x="734" y="141" type="line" smooth="yes"/>
      <point x="744" y="101"/>
      <point x="757" y="47"/>
      <point x="767" y="7" type="qcurve"/>
      <point x="767" y="7" type="line"/>
      <point x="776" y="47"/>
      <point x="787" y="99"/>
      <point x="796" y="141" type="qcurve" smooth="yes"/>
      <point x="986" y="1051" type="line"/>
      <point x="993" y="1051" type="line"/>
      <point x="773" y="0" type="line"/>
      <point x="761" y="0" type="line"/>
      <point x="545" y="881" type="line" smooth="yes"/>
      <point x="535" y="921"/>
      <point x="515" y="1001"/>
      <point x="506" y="1041" type="qcurve"/>
      <point x="506" y="1041" type="line"/>
      <point x="497" y="1001"/>
      <point x="479" y="922"/>
      <point x="469" y="881" type="qcurve" smooth="yes"/>
      <point x="260" y="0" type="line"/>
      <point x="248" y="0" type="line"/>
    </contour>
  </outline>
</glyph>
<glyph name="x" format="2">
  <advance width="574"/>
  <unicode hex="0078"/>
  <anchor x="283" y="0" name="bottom"/>
  <anchor x="283" y="1052" name="top"/>
  <anchor x="549" y="0" name="cy_descender"/>
  <outline>
    <contour>
      <point x="20" y="0" type="line"/>
      <point x="286" y="542" type="line"/>
      <point x="286" y="542" type="line"/>
      <point x="530" y="1052" type="line"/>
      <point x="537" y="1052" type="line"/>
      <point x="289" y="537" type="line"/>
      <point x="289" y="537" type="line"/>
      <point x="27" y="0" type="line"/>
    </contour>
    <contour>
      <point x="42" y="1052" type="line"/>
      <point x="49" y="1052" type="line"/>
      <point x="288" y="542" type="line"/>
      <point x="288" y="542" type="line"/>
      <point x="554" y="0" type="line"/>
      <point x="547" y="0" type="line"/>
      <point x="285" y="537" type="line"/>
      <point x="285" y="537" type="line"/>
    </contour>
  </outline>
</glyph>
<glyph name="y" format="2">
  <advance width="746"/>
  <unicode hex="0079"/>
  <anchor x="738" y="0" name="bottom"/>
  <anchor x="437" y="1052" name="top"/>
  <outline>
    <contour>
      <point x="10" y="-416" type="qcurve"/>
      <point x="10" y="-261" type="line"/>
      <point x="36" y="-269"/>
      <point x="107" y="-279"/>
      <point x="132" y="-279" type="qcurve" smooth="yes"/>
      <point x="238" y="-279"/>
      <point x="411" y="-94"/>
      <point x="435" y="42" type="qcurve"/>
      <point x="432" y="42" type="line"/>
      <point x="118" y="1052" type="line"/>
      <point x="125" y="1052" type="line"/>
      <point x="389" y="203" type="line" smooth="yes"/>
      <point x="401" y="163"/>
      <point x="424" y="89"/>
      <point x="436" y="49" type="qcurve"/>
      <point x="436" y="49" type="line"/>
      <point x="448" y="89"/>
      <point x="470" y="162"/>
      <point x="482" y="203" type="qcurve" smooth="yes"/>
      <point x="739" y="1052" type="line"/>
      <point x="746" y="1052" type="line"/>
      <point x="440" y="42" type="line" smooth="yes"/>
      <point x="341" y="-286"/>
      <point x="213" y="-436"/>
      <point x="140" y="-436" type="qcurve" smooth="yes"/>
      <point x="100" y="-436"/>
      <point x="38" y="-426"/>
    </contour>
  </outline>
</glyph>
<glyph name="cent" format="2">
  <advance width="676"/>
  <unicode hex="00A2"/>
  <outline>
    <contour>
      <point x="368" y="282" type="qcurve" smooth="yes"/>
      <point x="483" y="282"/>
      <point x="621" y="391"/>
      <point x="623" y="492" type="qcurve"/>
      <point x="630" y="492" type="line"/>
      <point x="624" y="323"/>
      <point x="482" y="130"/>
      <point x="364" y="130" type="qcurve" smooth="yes"/>
      <point x="222" y="130"/>
      <point x="65" y="410"/>
      <point x="65" y="670" type="qcurve" smooth="yes"/>
      <point x="65" y="712" type="line" smooth="yes"/>
      <point x="65" y="972"/>
      <point x="222" y="1252"/>
      <point x="368" y="1252" type="qcurve" smooth="yes"/>
      <point x="480" y="1252"/>
      <point x="625" y="1049"/>
      <point x="630" y="860" type="qcurve"/>
      <point x="623" y="860" type="line"/>
      <point x="622" y="976"/>
      <point x="483" y="1100"/>
      <point x="368" y="1100" type="qcurve" smooth="yes"/>
      <point x="225" y="1100"/>
      <point x="72" y="899"/>
      <point x="72" y="712" type="qcurve" smooth="yes"/>
      <point x="72" y="670" type="line" smooth="yes"/>
      <point x="72" y="483"/>
      <point x="225" y="282"/>
    </contour>
    <contour>
      <point x="365" y="0" type="line"/>
      <point x="365" y="197" type="line"/>
      <point x="365" y="211" type="line"/>
      <point x="365" y="708" type="line"/>
      <point x="372" y="708" type="line"/>
      <point x="372" y="210" type="line"/>
      <point x="372" y="200" type="line"/>
      <point x="372" y="0" type="line"/>
    </contour>
    <contour>
      <point x="365" y="708" type="line"/>
      <point x="365" y="1182" type="line"/>
      <point x="365" y="1192" type="line"/>
      <point x="365" y="1402" type="line"/>
      <point x="372" y="1402" type="line"/>
      <point x="372" y="1192" type="line"/>
      <point x="372" y="1179" type="line"/>
      <point x="372" y="708" type="line"/>
    </contour>
  </outline>
</glyph>
<glyph name="sterling" format="2">
  <advance width="650"/>
  <unicode hex="00A3"/>
  <outline>
    <contour>
      <point x="654" y="0" type="line"/>
      <point x="36" y="0" type="line"/>
      <point x="36" y="160" type="line"/>
      <point x="92" y="160" type="line" smooth="yes"/>
      <point x="168" y="160"/>
      <point x="264" y="319"/>
      <point x="248" y="489" type="qcurve" smooth="yes"/>
      <point x="195" y="1039" type="line" smooth="yes"/>
      <point x="177" y="1228"/>
      <point x="281" y="1476"/>
      <point x="397" y="1476" type="qcurve" smooth="yes"/>
      <point x="509" y="1476"/>
      <point x="612" y="1299"/>
      <point x="612" y="1103" type="qcurve" smooth="yes"/>
      <point x="612" y="1087" type="line"/>
      <point x="605" y="1087" type="line"/>
      <point x="605" y="1103" type="line" smooth="yes"/>
      <point x="605" y="1218"/>
      <point x="491" y="1309"/>
      <point x="399" y="1309" type="qcurve" smooth="yes"/>
      <point x="302" y="1309"/>
      <point x="188" y="1185"/>
      <point x="202" y="1039" type="qcurve" smooth="yes"/>
      <point x="255" y="490" type="line" smooth="yes"/>
      <point x="266" y="372"/>
      <point x="220" y="207"/>
      <point x="151" y="166" type="qcurve"/>
      <point x="654" y="166" type="line"/>
    </contour>
    <contour>
      <point x="450" y="625" type="line"/>
      <point x="52" y="625" type="line"/>
      <point x="52" y="780" type="line"/>
      <point x="450" y="780" type="line"/>
    </contour>
  </outline>
</glyph>
<glyph name="yen" format="2">
  <advance width="820"/>
  <unicode hex="00A5"/>
  <outline>
    <contour>
      <point x="46" y="303" type="line"/>
      <point x="46" y="462" type="line"/>
      <point x="786" y="462" type="line"/>
      <point x="786" y="303" type="line"/>
    </contour>
    <contour>
      <point x="46" y="628" type="line"/>
      <point x="46" y="788" type="line"/>
      <point x="284" y="788" type="line"/>
      <point x="339" y="669" type="line"/>
      <point x="459" y="669" type="line"/>
      <point x="518" y="788" type="line"/>
      <point x="786" y="788" type="line"/>
      <point x="786" y="628" type="line"/>
    </contour>
    <contour>
      <point x="394" y="0" type="line"/>
      <point x="394" y="548" type="line"/>
      <point x="-35" y="1456" type="line"/>
      <point x="-28" y="1456" type="line"/>
      <point x="260" y="849" type="line" smooth="yes"/>
      <point x="274" y="819"/>
      <point x="370" y="613"/>
      <point x="395" y="559" type="qcurve"/>
      <point x="400" y="559" type="line"/>
      <point x="425" y="612"/>
      <point x="526" y="814"/>
      <point x="544" y="849" type="qcurve" smooth="yes"/>
      <point x="848" y="1456" type="line"/>
      <point x="855" y="1456" type="line"/>
      <point x="401" y="548" type="line"/>
      <point x="401" y="0" type="line"/>
    </contour>
  </outline>
</glyph>
<glyph name="degree" format="2">
  <advance width="528"/>
  <unicode hex="00B0"/>
  <outline>
    <contour>
      <point x="127" y="1217" type="qcurve"/>
      <point x="127" y="1342"/>
      <point x="199" y="1477"/>
      <point x="265" y="1477" type="qcurve" smooth="yes"/>
      <point x="330" y="1477"/>
      <point x="399" y="1342"/>
      <point x="399" y="1217" type="qcurve"/>
      <point x="399" y="1093"/>
      <point x="330" y="960"/>
      <point x="265" y="960" type="qcurve" smooth="yes"/>
      <point x="199" y="960"/>
      <point x="127" y="1093"/>
    </contour>
    <contour>
      <point x="134" y="1217" type="qcurve"/>
      <point x="134" y="1162"/>
      <point x="211" y="1088"/>
      <point x="265" y="1088" type="qcurve" smooth="yes"/>
      <point x="319" y="1088"/>
      <point x="392" y="1162"/>
      <point x="392" y="1217" type="qcurve" smooth="yes"/>
      <point x="392" y="1273"/>
      <point x="319" y="1349"/>
      <point x="265" y="1349" type="qcurve" smooth="yes"/>
      <point x="211" y="1349"/>
      <point x="134" y="1273"/>
    </contour>
  </outline>
</glyph>
<glyph name="periodcentered" format="2">
  <advance width="600"/>
  <unicode hex="00B7"/>
  <outline>
    <contour>
      <point x="275" y="749" type="qcurve" smooth="yes"/>
      <point x="275" y="759"/>
      <point x="288" y="773"/>
      <point x="300" y="773" type="qcurve" smooth="yes"/>
      <point x="312" y="773"/>
      <point x="325" y="759"/>
      <point x="325" y="749" type="qcurve" smooth="yes"/>
      <point x="325" y="739"/>
      <point x="312" y="725"/>
      <point x="300" y="725" type="qcurve" smooth="yes"/>
      <point x="288" y="725"/>
      <point x="275" y="739"/>
    </contour>
  </outline>
</glyph>
<glyph name="AE" format="2">
  <advance width="1667"/>
  <unicode hex="00C6"/>
  <anchor x="934" y="1456" name="top"/>
  <outline>
    <contour>
      <point x="-15" y="0" type="line"/>
      <point x="866" y="1456" type="line"/>
      <point x="1589" y="1456" type="line"/>
      <point x="1589" y="1298" type="line"/>
      <point x="878" y="1298" type="line"/>
      <point x="878" y="158" type="line"/>
      <point x="1599" y="158" type="line"/>
      <point x="1599" y="0" type="line"/>
      <point x="871" y="0" type="line"/>
      <point x="871" y="1452" type="line"/>
      <point x="-7" y="0" type="line"/>
    </contour>
    <contour>
      <point x="873" y="672" type="line"/>
      <point x="873" y="830" type="line"/>
      <point x="1497" y="830" type="line"/>
      <point x="1497" y="672" type="line"/>
    </contour>
    <contour>
      <point x="204" y="353" type="line"/>
      <point x="310" y="528" type="line"/>
      <point x="873" y="528" type="line"/>
      <point x="873" y="353" type="line"/>
    </contour>
  </outline>
</glyph>
<glyph name="kgreenlandic" format="2">
  <advance width="823"/>
  <unicode hex="0138"/>
  <outline>
    <contour>
      <point x="152" y="1052" type="line"/>
      <point x="152" y="0" type="line"/>
      <point x="145" y="0" type="line"/>
      <point x="145" y="1052" type="line"/>
    </contour>
    <contour>
      <point x="839" y="1052" type="line"/>
      <point x="329" y="462" type="line"/>
      <point x="149" y="462" type="line"/>
      <point x="149" y="624" type="line"/>
      <point x="244" y="624" type="line"/>
      <point x="615" y="1052" type="line"/>
    </contour>
    <contour>
      <point x="784" y="0" type="line"/>
      <point x="298" y="547" type="line"/>
      <point x="304" y="550" type="line"/>
      <point x="793" y="0" type="line"/>
    </contour>
  </outline>
</glyph>
<glyph name="oe" format="2">
  <advance width="1346"/>
  <unicode hex="0153"/>
  <outline>
    <contour>
      <point x="398" y="-30" type="qcurve" smooth="yes"/>
      <point x="247" y="-30"/>
      <point x="85" y="250"/>
      <point x="85" y="510" type="qcurve" smooth="yes"/>
      <point x="85" y="542" type="line" smooth="yes"/>
      <point x="85" y="802"/>
      <point x="247" y="1082"/>
      <point x="398" y="1082" type="qcurve" smooth="yes"/>
      <point x="534" y="1082"/>
      <point x="693" y="855"/>
      <point x="708" y="643" type="qcurve"/>
      <point x="722" y="840"/>
      <point x="868" y="1082"/>
      <point x="997" y="1082" type="qcurve" smooth="yes"/>
      <point x="1128" y="1082"/>
      <point x="1264" y="854"/>
      <point x="1264" y="656" type="qcurve" smooth="yes"/>
      <point x="1264" y="484" type="line"/>
      <point x="708" y="484" type="line"/>
      <point x="708" y="632" type="line"/>
      <point x="1257" y="632" type="line"/>
      <point x="1257" y="656" type="line" smooth="yes"/>
      <point x="1257" y="770"/>
      <point x="1127" y="930"/>
      <point x="1005" y="930" type="qcurve" smooth="yes"/>
      <point x="857" y="930"/>
      <point x="711" y="705"/>
      <point x="711" y="542" type="qcurve" smooth="yes"/>
      <point x="711" y="510" type="line" smooth="yes"/>
      <point x="711" y="347"/>
      <point x="865" y="122"/>
      <point x="1007" y="122" type="qcurve"/>
      <point x="1107" y="122"/>
      <point x="1226" y="210"/>
      <point x="1272" y="270" type="qcurve"/>
      <point x="1278" y="268" type="line"/>
      <point x="1250" y="137"/>
      <point x="1122" y="-30"/>
      <point x="1007" y="-30" type="qcurve"/>
      <point x="882" y="-30"/>
      <point x="723" y="207"/>
      <point x="708" y="409" type="qcurve"/>
      <point x="693" y="197"/>
      <point x="534" y="-30"/>
    </contour>
    <contour>
      <point x="398" y="122" type="qcurve" smooth="yes"/>
      <point x="550" y="122"/>
      <point x="704" y="347"/>
      <point x="704" y="510" type="qcurve" smooth="yes"/>
      <point x="704" y="542" type="line" smooth="yes"/>
      <point x="704" y="705"/>
      <point x="550" y="930"/>
      <point x="398" y="930" type="qcurve" smooth="yes"/>
      <point x="246" y="930"/>
      <point x="92" y="705"/>
      <point x="92" y="542" type="qcurve" smooth="yes"/>
      <point x="92" y="510" type="line" smooth="yes"/>
      <point x="92" y="347"/>
      <point x="246" y="122"/>
    </contour>
  </outline>
</glyph>
<glyph name="breveinvertedcomb" format="2">
  <unicode hex="030F"/>
  <anchor x="0" y="1052" name="_top"/>
  <anchor x="0" y="1540" name="top"/>
  <outline>
    <contour>
      <point x="-233" y="1220" type="qcurve"/>
      <point x="-336" y="1274" type="line"/>
      <point x="-296" y="1376"/>
      <point x="-126" y="1540"/>
      <point x="0" y="1540" type="qcurve" smooth="yes"/>
      <point x="126" y="1540"/>
      <point x="296" y="1376"/>
      <point x="336" y="1273" type="qcurve"/>
      <point x="233" y="1220" type="line"/>
      <point x="177" y="1357"/>
      <point x="46" y="1533"/>
      <point x="0" y="1533" type="qcurve" smooth="yes"/>
      <point x="-47" y="1533"/>
      <point x="-179" y="1357"/>
    </contour>
  </outline>
</glyph>
<glyph name="Gamma" format="2">
  <advance width="892"/>
  <unicode hex="0393"/>
  <anchor x="526" y="1456" name="top"/>
  <anchor x="174" y="708" name="center"/>
  <outline>
    <contour>
      <point x="170" y="0" type="line"/>
      <point x="170" y="1456" type="line"/>
      <point x="867" y="1456" type="line"/>
      <point x="867" y="1298" type="line"/>
      <point x="177" y="1298" type="line"/>
      <point x="177" y="0" type="line"/>
    </contour>
  </outline>
</glyph>
<glyph name="gamma" format="2">
  <advance width="757"/>
  <unicode hex="03B3"/>
  <outline>
    <contour>
      <point x="368" y="-366" type="line"/>
      <point x="368" y="58" type="line"/>
      <point x="0" y="1052" type="line"/>
      <point x="8" y="1052" type="line"/>
      <point x="321" y="203" type="line" smooth="yes"/>
      <point x="336" y="163"/>
      <point x="360" y="98"/>
      <point x="369" y="73" type="qcurve"/>
      <point x="374" y="73" type="line"/>
      <point x="385" y="100"/>
      <point x="409" y="164"/>
      <point x="424" y="203" type="qcurve" smooth="yes"/>
      <point x="749" y="1052" type="line"/>
      <point x="757" y="1052" type="line"/>
      <point x="375" y="58" type="line"/>
      <point x="375" y="-366" type="line"/>
    </contour>
  </outline>
</glyph>
<glyph name="eta" format="2">
  <advance width="780"/>
  <unicode hex="03B7"/>
  <anchor x="408" y="0" name="bottom"/>
  <anchor x="410" y="1052" name="top"/>
  <outline>
    <contour>
      <point x="148" y="0" type="line"/>
      <point x="148" y="1052" type="line"/>
      <point x="155" y="1052" type="line"/>
      <point x="155" y="742" type="line"/>
      <point x="155" y="0" type="line"/>
    </contour>
    <contour>
      <point x="152" y="744" type="qcurve"/>
      <point x="152" y="916" type="line"/>
      <point x="207" y="989"/>
      <point x="368" y="1072"/>
      <point x="459" y="1072" type="qcurve"/>
      <point x="549" y="1072"/>
      <point x="642" y="929"/>
      <point x="642" y="706" type="qcurve" smooth="yes"/>
      <point x="642" y="-416" type="line"/>
      <point x="635" y="-416" type="line"/>
      <point x="635" y="707" type="line" smooth="yes"/>
      <point x="635" y="801"/>
      <point x="523" y="916"/>
      <point x="418" y="916" type="qcurve"/>
      <point x="328" y="916"/>
      <point x="193" y="818"/>
    </contour>
  </outline>
</glyph>
<glyph name="lambda" format="2">
  <advance width="765"/>
  <unicode hex="03BB"/>
  <outline>
    <contour>
      <point x="0" y="0" type="line"/>
      <point x="397" y="1041" type="line"/>
      <point x="325" y="1251" type="line" smooth="yes"/>
      <point x="316" y="1278"/>
      <point x="240" y="1396"/>
      <point x="159" y="1396" type="qcurve" smooth="yes"/>
      <point x="133" y="1396"/>
      <point x="66" y="1389"/>
      <point x="40" y="1381" type="qcurve"/>
      <point x="40" y="1535" type="line"/>
      <point x="57" y="1545"/>
      <point x="138" y="1556"/>
      <point x="173" y="1556" type="qcurve" smooth="yes"/>
      <point x="209" y="1556"/>
      <point x="275" y="1414"/>
      <point x="331" y="1252" type="qcurve" smooth="yes"/>
      <point x="765" y="0" type="line"/>
      <point x="758" y="0" type="line"/>
      <point x="465" y="846" type="line" smooth="yes"/>
      <point x="446" y="902"/>
      <point x="421" y="972"/>
      <point x="404" y="1021" type="qcurve"/>
      <point x="396" y="1021" type="line"/>
      <point x="377" y="972"/>
      <point x="344" y="886"/>
      <point x="329" y="846" type="qcurve" smooth="yes"/>
      <point x="7" y="0" type="line"/>
    </contour>
  </outline>
</glyph>
<glyph name="xi" format="2">
  <advance width="800"/>
  <unicode hex="03BE"/>
  <outline>
    <contour>
      <point x="618" y="-348" type="line"/>
      <point x="641" y="-295"/>
      <point x="672" y="-207"/>
      <point x="672" y="-155" type="qcurve" smooth="yes"/>
      <point x="672" y="-74"/>
      <point x="589" y="16"/>
      <point x="433" y="52" type="qcurve" smooth="yes"/>
      <point x="403" y="59" type="line" smooth="yes"/>
      <point x="243" y="98"/>
      <point x="85" y="263"/>
      <point x="85" y="390" type="qcurve" smooth="yes"/>
      <point x="85" y="517"/>
      <point x="246" y="724"/>
      <point x="408" y="777" type="qcurve"/>
      <point x="408" y="753" type="line"/>
      <point x="292" y="801"/>
      <point x="134" y="945"/>
      <point x="134" y="1082" type="qcurve" smooth="yes"/>
      <point x="134" y="1216"/>
      <point x="273" y="1355"/>
      <point x="462" y="1393" type="qcurve"/>
      <point x="462" y="1384" type="line"/>
      <point x="91" y="1384" type="line"/>
      <point x="91" y="1536" type="line"/>
      <point x="726" y="1536" type="line"/>
      <point x="726" y="1384" type="line"/>
      <point x="370" y="1384"/>
      <point x="141" y="1251"/>
      <point x="141" y="1082" type="qcurve" smooth="yes"/>
      <point x="141" y="975"/>
      <point x="334" y="846"/>
      <point x="484" y="846" type="qcurve" smooth="yes"/>
      <point x="664" y="846" type="line"/>
      <point x="664" y="694" type="line"/>
      <point x="484" y="694" type="line" smooth="yes"/>
      <point x="299" y="694"/>
      <point x="92" y="512"/>
      <point x="92" y="390" type="qcurve" smooth="yes"/>
      <point x="92" y="266"/>
      <point x="250" y="101"/>
      <point x="405" y="65" type="qcurve" smooth="yes"/>
      <point x="435" y="58" type="line" smooth="yes"/>
      <point x="593" y="21"/>
      <point x="679" y="-73"/>
      <point x="679" y="-155" type="qcurve" smooth="yes"/>
      <point x="679" y="-209"/>
      <point x="641" y="-313"/>
      <point x="623" y="-348" type="qcurve"/>
    </contour>
  </outline>
</glyph>
<glyph name="upsilon" format="2">
  <advance width="949"/>
  <unicode hex="03C5"/>
  <anchor x="475" y="1052" name="top"/>
  <outline>
    <contour>
      <point x="476" y="-20" type="qcurve" smooth="yes"/>
      <point x="328" y="-20"/>
      <point x="227" y="201"/>
      <point x="227" y="403" type="qcurve" smooth="yes"/>
      <point x="227" y="1052" type="line"/>
      <point x="234" y="1052" type="line"/>
      <point x="234" y="401" type="line" smooth="yes"/>
      <point x="234" y="275"/>
      <point x="350" y="136"/>
      <point x="476" y="136" type="qcurve" smooth="yes"/>
      <point x="598" y="136"/>
      <point x="714" y="275"/>
      <point x="714" y="401" type="qcurve" smooth="yes"/>
      <point x="714" y="1052" type="line"/>
      <point x="721" y="1052" type="line"/>
      <point x="721" y="403" type="line" smooth="yes"/>
      <point x="721" y="201"/>
      <point x="625" y="-20"/>
    </contour>
  </outline>
</glyph>
<glyph name="chi" format="2">
  <advance width="776"/>
  <unicode hex="03C7"/>
  <outline>
    <contour>
      <point x="749" y="-416" type="line"/>
      <point x="386" y="332" type="line"/>
      <point x="386" y="332" type="line"/>
      <point x="43" y="1052" type="line"/>
      <point x="50" y="1052" type="line"/>
      <point x="389" y="340" type="line"/>
      <point x="389" y="340" type="line"/>
      <point x="756" y="-416" type="line"/>
    </contour>
    <contour>
      <point x="20" y="-416" type="line"/>
      <point x="386" y="340" type="line"/>
      <point x="386" y="340" type="line"/>
      <point x="731" y="1052" type="line"/>
      <point x="738" y="1052" type="line"/>
      <point x="389" y="332" type="line"/>
      <point x="389" y="332" type="line"/>
      <point x="27" y="-416" type="line"/>
    </contour>
  </outline>
</glyph>
<glyph name="Kaisymbol" format="2">
  <advance width="1081"/>
  <unicode hex="03CF"/>
  <outline>
    <contour>
      <point x="170" y="0" type="line"/>
      <point x="170" y="1456" type="line"/>
      <point x="177" y="1456" type="line"/>
      <point x="177" y="0" type="line"/>
    </contour>
    <contour>
      <point x="175" y="396" type="line"/>
      <point x="175" y="636" type="line"/>
      <point x="917" y="1456" type="line"/>
      <point x="1149" y="1456" type="line"/>
      <point x="506" y="757" type="line"/>
    </contour>
    <contour>
      <point x="1074" y="133" type="line"/>
      <point x="520" y="878" type="line"/>
      <point x="526" y="882" type="line"/>
      <point x="1182" y="0" type="line"/>
      <point x="450" y="-590" type="line"/>
      <point x="336" y="-456" type="line"/>
    </contour>
  </outline>
</glyph>
<glyph name="Zhe" format="2">
  <advance width="1590"/>
  <unicode hex="0416"/>
  <anchor x="797" y="1456" name="top"/>
  <anchor x="1398" y="0" name="cy_descender"/>
  <outline>
    <contour>
      <point x="794" y="0" type="line"/>
      <point x="794" y="1456" type="line"/>
      <point x="801" y="1456" type="line"/>
      <point x="801" y="0" type="line"/>
    </contour>
    <contour>
      <point x="1476" y="0" type="line"/>
      <point x="938" y="740" type="line"/>
      <point x="885" y="823" type="line"/>
      <point x="1484" y="0" type="line"/>
    </contour>
    <contour>
      <point x="796" y="830" type="line"/>
      <point x="906" y="830" type="line"/>
      <point x="1363" y="1456" type="line"/>
      <point x="1580" y="1456" type="line"/>
      <point x="990" y="673" type="line"/>
      <point x="796" y="673" type="line"/>
    </contour>
    <contour>
      <point x="110" y="0" type="line"/>
      <point x="708" y="823" type="line"/>
      <point x="656" y="740" type="line"/>
      <point x="118" y="0" type="line"/>
    </contour>
    <contour>
      <point x="796" y="830" type="line"/>
      <point x="796" y="673" type="line"/>
      <point x="599" y="673" type="line"/>
      <point x="10" y="1456" type="line"/>
      <point x="229" y="1456" type="line"/>
      <point x="686" y="830" type="line"/>
    </contour>
  </outline>
</glyph>
<glyph name="ve" format="2">
  <advance width="766"/>
  <unicode hex="0432"/>
  <outline>
    <contour>
      <point x="148" y="0" type="line"/>
      <point x="148" y="1052" type="line"/>
      <point x="423" y="1052" type="line" smooth="yes"/>
      <point x="515" y="1052"/>
      <point x="618" y="912"/>
      <point x="618" y="766" type="qcurve" smooth="yes"/>
      <point x="618" y="682"/>
      <point x="559" y="563"/>
      <point x="483" y="544" type="qcurve"/>
      <point x="483" y="541" type="line"/>
      <point x="574" y="525"/>
      <point x="656" y="402"/>
      <point x="656" y="306" type="qcurve" smooth="yes"/>
      <point x="656" y="161"/>
      <point x="551" y="0"/>
      <point x="453" y="0" type="qcurve" smooth="yes"/>
    </contour>
    <contour>
      <point x="155" y="145" type="line"/>
      <point x="453" y="145" type="line" smooth="yes"/>
      <point x="554" y="145"/>
      <point x="649" y="234"/>
      <point x="649" y="306" type="qcurve" smooth="yes"/>
      <point x="649" y="377"/>
      <point x="555" y="463"/>
      <point x="453" y="463" type="qcurve" smooth="yes"/>
      <point x="153" y="463" type="line"/>
      <point x="153" y="607" type="line"/>
      <point x="423" y="607" type="line" smooth="yes"/>
      <point x="523" y="607"/>
      <point x="611" y="690"/>
      <point x="611" y="766" type="qcurve" smooth="yes"/>
      <point x="611" y="831"/>
      <point x="523" y="907"/>
      <point x="423" y="907" type="qcurve" smooth="yes"/>
      <point x="155" y="907" type="line"/>
    </contour>
  </outline>
</glyph>
<glyph name="che" format="2">
  <advance width="737"/>
  <unicode hex="0447"/>
  <guideline x="855" y="515" angle="90" identifier="GGEFes61Q6"/>
  <anchor x="584.0152671755725" y="0" name="cy_descender"/>
  <outline>
    <contour>
      <point x="133" y="773" type="line" smooth="yes"/>
      <point x="133" y="642"/>
      <point x="232" y="542"/>
      <point x="355" y="542" type="qcurve" smooth="yes"/>
      <point x="444" y="542"/>
      <point x="542" y="558"/>
      <point x="585" y="569" type="qcurve"/>
      <point x="585" y="424" type="line"/>
      <point x="556" y="415"/>
      <point x="442" y="396"/>
      <point x="318" y="396" type="qcurve" smooth="yes"/>
      <point x="245" y="396"/>
      <point x="126" y="583"/>
      <point x="126" y="773" type="qcurve" smooth="yes"/>
      <point x="126" y="1052" type="line"/>
      <point x="133" y="1052" type="line"/>
    </contour>
    <contour>
      <point x="590" y="1052" type="line"/>
      <point x="590" y="0" type="line"/>
      <point x="583" y="0" type="line"/>
      <point x="583" y="1052" type="line"/>
    </contour>
  </outline>
</glyph>
<glyph name="Kabashkircyr" format="2">
  <advance width="1495"/>
  <unicode hex="04A0"/>
  <outline>
    <contour>
      <point x="1494" y="0" type="line"/>
      <point x="828" y="775" type="line"/>
      <point x="834" y="778" type="line"/>
      <point x="1502" y="0" type="line"/>
    </contour>
    <contour>
      <point x="592" y="830" type="line"/>
      <point x="712" y="830" type="line"/>
      <point x="1257" y="1456" type="line"/>
      <point x="1474" y="1456" type="line"/>
      <point x="790" y="672" type="line"/>
      <point x="592" y="672" type="line"/>
    </contour>
    <contour>
      <point x="587" y="0" type="line"/>
      <point x="587" y="1298" type="line"/>
      <point x="212" y="1298" type="line"/>
      <point x="212" y="1456" type="line"/>
      <point x="594" y="1456" type="line"/>
      <point x="594" y="0" type="line"/>
    </contour>
  </outline>
</glyph>
<glyph name="quoteleft" format="2">
  <advance width="410"/>
  <unicode hex="2018"/>
  <outline>
    <contour>
      <point x="183" y="1073" type="line"/>
      <point x="183" y="1194" type="line" smooth="yes"/>
      <point x="183" y="1284"/>
      <point x="183" y="1488"/>
      <point x="266" y="1556" type="qcurve"/>
      <point x="371" y="1483" type="line"/>
      <point x="318" y="1423"/>
      <point x="191" y="1278"/>
      <point x="190" y="1197" type="qcurve" smooth="yes"/>
      <point x="190" y="1073" type="line"/>
    </contour>
  </outline>
</glyph>
<glyph name="quotedblright" format="2">
  <advance width="830"/>
  <unicode hex="201D"/>
  <outline>
    <contour>
      <point x="230" y="1456" type="line"/>
      <point x="230" y="1335" type="line" smooth="yes"/>
      <point x="230" y="1245"/>
      <point x="230" y="1041"/>
      <point x="147" y="973" type="qcurve"/>
      <point x="42" y="1046" type="line"/>
      <point x="95" y="1106"/>
      <point x="222" y="1251"/>
      <point x="223" y="1332" type="qcurve" smooth="yes"/>
      <point x="223" y="1456" type="line"/>
    </contour>
    <contour>
      <point x="650" y="1456" type="line"/>
      <point x="650" y="1335" type="line" smooth="yes"/>
      <point x="650" y="1245"/>
      <point x="650" y="1041"/>
      <point x="567" y="973" type="qcurve"/>
      <point x="462" y="1046" type="line"/>
      <point x="515" y="1106"/>
      <point x="642" y="1251"/>
      <point x="643" y="1332" type="qcurve" smooth="yes"/>
      <point x="643" y="1456" type="line"/>
    </contour>
  </outline>
</glyph>
<glyph name="daggerdbl" format="2">
  <advance width="828"/>
  <unicode hex="2021"/>
  <outline>
    <contour>
      <point x="75" y="852" type="line"/>
      <point x="75" y="1025" type="line"/>
      <point x="753" y="1025" type="line"/>
      <point x="753" y="852" type="line"/>
    </contour>
    <contour>
      <point x="75" y="33" type="line"/>
      <point x="75" y="206" type="line"/>
      <point x="753" y="206" type="line"/>
      <point x="753" y="33" type="line"/>
    </contour>
    <contour>
      <point x="409" y="-451" type="line"/>
      <point x="409" y="152" type="line"/>
      <point x="411" y="536" type="line"/>
      <point x="411" y="905" type="line"/>
      <point x="411" y="1508" type="line"/>
      <point x="418" y="1508" type="line"/>
      <point x="418" y="905" type="line"/>
      <point x="418" y="536" type="line"/>
      <point x="416" y="152" type="line"/>
      <point x="416" y="-451" type="line"/>
    </contour>
  </outline>
</glyph>
<glyph name="fraction" format="2">
  <advance width="342"/>
  <unicode hex="2044"/>
  <guideline y="901" identifier="tcCoNUQTdD"/>
  <guideline y="555" identifier="0lx51aIE0d"/>
  <outline>
    <contour>
      <point x="635" y="1456" type="line"/>
      <point x="-283" y="0" type="line"/>
      <point x="-294" y="-3" type="line"/>
      <point x="624" y="1453" type="line"/>
    </contour>
  </outline>
</glyph>
<glyph name="commercialMinusSign" format="2">
  <advance width="710"/>
  <unicode hex="2052"/>
  <outline>
    <contour>
      <point x="61" y="-1" type="line"/>
      <point x="646" y="1501" type="line"/>
      <point x="653" y="1499" type="line"/>
      <point x="68" y="-3" type="line"/>
    </contour>
    <contour>
      <point x="324" y="148" type="qcurve" smooth="yes"/>
      <point x="324" y="213"/>
      <point x="415" y="310"/>
      <point x="486" y="310" type="qcurve" smooth="yes"/>
      <point x="557" y="310"/>
      <point x="648" y="213"/>
      <point x="648" y="148" type="qcurve" smooth="yes"/>
      <point x="648" y="84"/>
      <point x="557" y="-13"/>
      <point x="486" y="-13" type="qcurve" smooth="yes"/>
      <point x="415" y="-13"/>
      <point x="324" y="84"/>
    </contour>
    <contour>
      <point x="60" y="1304" type="qcurve" smooth="yes"/>
      <point x="60" y="1369"/>
      <point x="151" y="1466"/>
      <point x="222" y="1466" type="qcurve" smooth="yes"/>
      <point x="293" y="1466"/>
      <point x="384" y="1369"/>
      <point x="384" y="1304" type="qcurve" smooth="yes"/>
      <point x="384" y="1240"/>
      <point x="293" y="1143"/>
      <point x="222" y="1143" type="qcurve" smooth="yes"/>
      <point x="151" y="1143"/>
      <point x="60" y="1240"/>
    </contour>
  </outline>
</glyph>
<glyph name="franc" format="2">
  <advance width="836"/>
  <unicode hex="20A3"/>
  <outline>
    <contour>
      <point x="180" y="0" type="line"/>
      <point x="180" y="1456" type="line"/>
      <point x="814" y="1456" type="line"/>
      <point x="814" y="1298" type="line"/>
      <point x="187" y="1298" type="line"/>
      <point x="187" y="0" type="line"/>
    </contour>
    <contour>
      <point x="20" y="296" type="line"/>
      <point x="20" y="454" type="line"/>
      <point x="537" y="454" type="line"/>
      <point x="537" y="296" type="line"/>
    </contour>
    <contour>
      <point x="182" y="703" type="line"/>
      <point x="182" y="861" type="line"/>
      <point x="725" y="861" type="line"/>
      <point x="725" y="703" type="line"/>
    </contour>
  </outline>
</glyph>
<glyph name="dong" format="2">
  <advance width="662"/>
  <unicode hex="20AB"/>
  <outline>
    <contour>
      <point x="15" y="480" type="qcurve" smooth="yes"/>
      <point x="15" y="492" type="line" smooth="yes"/>
      <point x="15" y="718"/>
      <point x="136" y="992"/>
      <point x="232" y="992" type="qcurve" smooth="yes"/>
      <point x="335" y="992"/>
      <point x="486" y="925"/>
      <point x="533" y="868" type="qcurve"/>
      <point x="533" y="1456" type="line"/>
      <point x="540" y="1456" type="line"/>
      <point x="540" y="0" type="line"/>
      <point x="533" y="0" type="line"/>
      <point x="533" y="137" type="line"/>
      <point x="537" y="137" type="line"/>
      <point x="497" y="72"/>
      <point x="335" y="-20"/>
      <point x="244" y="-20" type="qcurve" smooth="yes"/>
      <point x="131" y="-20"/>
      <point x="15" y="228"/>
    </contour>
    <contour>
      <point x="22" y="480" type="line" smooth="yes"/>
      <point x="22" y="310"/>
      <point x="135" y="132"/>
      <point x="255" y="132" type="qcurve" smooth="yes"/>
      <point x="365" y="132"/>
      <point x="502" y="242"/>
      <point x="533" y="312" type="qcurve"/>
      <point x="533" y="680" type="line"/>
      <point x="502" y="750"/>
      <point x="365" y="840"/>
      <point x="273" y="840" type="qcurve" smooth="yes"/>
      <point x="138" y="840"/>
      <point x="22" y="672"/>
      <point x="22" y="492" type="qcurve" smooth="yes"/>
    </contour>
    <contour>
      <point x="659" y="1156" type="line"/>
      <point x="115" y="1156" type="line"/>
      <point x="115" y="1302" type="line"/>
      <point x="659" y="1302" type="line"/>
    </contour>
    <contour>
      <point x="609" y="-266" type="line"/>
      <point x="43" y="-266" type="line"/>
      <point x="43" y="-128" type="line"/>
      <point x="609" y="-128" type="line"/>
    </contour>
  </outline>
</glyph>
<glyph name="numero" format="2">
  <advance width="1600"/>
  <unicode hex="2116"/>
  <outline>
    <contour>
      <point x="170" y="0" type="line"/>
      <point x="170" y="1456" type="line"/>
      <point x="196" y="1456" type="line"/>
      <point x="802" y="122" type="line" smooth="yes"/>
      <point x="817" y="90"/>
      <point x="841" y="36"/>
      <point x="854" y="7" type="qcurve"/>
      <point x="864" y="7" type="line"/>
      <point x="864" y="33"/>
      <point x="864" y="112"/>
      <point x="864" y="142" type="qcurve" smooth="yes"/>
      <point x="864" y="1456" type="line"/>
      <point x="871" y="1456" type="line"/>
      <point x="871" y="0" type="line"/>
      <point x="850" y="0" type="line"/>
      <point x="244" y="1332" type="line" smooth="yes"/>
      <point x="229" y="1364"/>
      <point x="203" y="1422"/>
      <point x="191" y="1449" type="qcurve"/>
      <point x="177" y="1449" type="line"/>
      <point x="177" y="1419"/>
      <point x="177" y="1344"/>
      <point x="177" y="1314" type="qcurve" smooth="yes"/>
      <point x="177" y="0" type="line"/>
    </contour>
    <contour>
      <point x="1004" y="992" type="qcurve" smooth="yes"/>
      <point x="1004" y="1019" type="line" smooth="yes"/>
      <point x="1004" y="1238"/>
      <point x="1131" y="1473"/>
      <point x="1249" y="1473" type="qcurve" smooth="yes"/>
      <point x="1368" y="1473"/>
      <point x="1495" y="1238"/>
      <point x="1495" y="1019" type="qcurve" smooth="yes"/>
      <point x="1495" y="992" type="line" smooth="yes"/>
      <point x="1495" y="774"/>
      <point x="1368" y="539"/>
      <point x="1249" y="539" type="qcurve" smooth="yes"/>
      <point x="1131" y="539"/>
      <point x="1004" y="774"/>
    </contour>
    <contour>
      <point x="1011" y="1016" type="qcurve" smooth="yes"/>
      <point x="1011" y="991" type="line" smooth="yes"/>
      <point x="1011" y="864"/>
      <point x="1128" y="699"/>
      <point x="1249" y="699" type="qcurve" smooth="yes"/>
      <point x="1370" y="699"/>
      <point x="1488" y="864"/>
      <point x="1488" y="991" type="qcurve" smooth="yes"/>
      <point x="1488" y="1016" type="line" smooth="yes"/>
      <point x="1488" y="1143"/>
      <point x="1369" y="1308"/>
      <point x="1249" y="1308" type="qcurve" smooth="yes"/>
      <point x="1129" y="1308"/>
      <point x="1011" y="1143"/>
    </contour>
    <contour>
      <point x="1047" y="232" type="line"/>
      <point x="1047" y="414" type="line"/>
      <point x="1452" y="414" type="line"/>
      <point x="1452" y="232" type="line"/>
    </contour>
  </outline>
</glyph>
<glyph name="divisionslash" format="2">
  <advance width="656"/>
  <unicode hex="2215"/>
  <outline>
    <contour>
      <point x="20" y="-121" type="line"/>
      <point x="630" y="1536" type="line"/>
      <point x="637" y="1536" type="line"/>
      <point x="27" y="-121" type="line"/>
    </contour>
  </outline>
</glyph>
<glyph name="bulletoperator" format="2">
  <advance width="1024"/>
  <unicode hex="2219"/>
  <outline>
    <contour>
      <point x="483" y="674" type="qcurve" smooth="yes"/>
      <point x="483" y="686"/>
      <point x="499" y="703"/>
      <point x="512" y="703" type="qcurve" smooth="yes"/>
      <point x="525" y="703"/>
      <point x="541" y="686"/>
      <point x="541" y="674" type="qcurve" smooth="yes"/>
      <point x="541" y="663"/>
      <point x="525" y="645"/>
      <point x="512" y="645" type="qcurve" smooth="yes"/>
      <point x="499" y="645"/>
      <point x="483" y="663"/>
    </contour>
  </outline>
</glyph>
<glyph name="greaterequal" format="2">
  <advance width="1024"/>
  <unicode hex="2265"/>
  <outline>
    <contour>
      <point x="111" y="333" type="line"/>
      <point x="111" y="340" type="line"/>
      <point x="922" y="679" type="line"/>
      <point x="111" y="1032" type="line"/>
      <point x="111" y="1039" type="line"/>
      <point x="929" y="683" type="line"/>
      <point x="929" y="675" type="line"/>
    </contour>
    <contour>
      <point x="972" y="162" type="line"/>
      <point x="62" y="162" type="line"/>
      <point x="62" y="169" type="line"/>
      <point x="972" y="169" type="line"/>
    </contour>
  </outline>
</glyph>
<glyph name="U-stroke" format="2">
  <advance width="1015"/>
  <outline>
    <contour>
      <point x="198" y="544" type="line"/>
      <point x="817" y="544" type="line"/>
      <point x="817" y="378" type="line"/>
      <point x="198" y="378" type="line"/>
    </contour>
  </outline>
</glyph>
<glyph name="Yi-dieresiscomb.case" format="2">
  <anchor x="0" y="1456" name="_top"/>
  <outline>
    <contour>
      <point x="-178" y="1696" type="qcurve" smooth="yes"/>
      <point x="-178" y="1706"/>
      <point x="-165" y="1721"/>
      <point x="-153" y="1721" type="qcurve" smooth="yes"/>
      <point x="-140" y="1721"/>
      <point x="-127" y="1706"/>
      <point x="-127" y="1696" type="qcurve" smooth="yes"/>
      <point x="-127" y="1686"/>
      <point x="-140" y="1672"/>
      <point x="-153" y="1672" type="qcurve" smooth="yes"/>
      <point x="-165" y="1672"/>
      <point x="-178" y="1686"/>
    </contour>
    <contour>
      <point x="122" y="1696" type="qcurve" smooth="yes"/>
      <point x="122" y="1706"/>
      <point x="134" y="1720"/>
      <point x="147" y="1720" type="qcurve" smooth="yes"/>
      <point x="159" y="1720"/>
      <point x="172" y="1706"/>
      <point x="172" y="1696" type="qcurve" smooth="yes"/>
      <point x="172" y="1686"/>
      <point x="159" y="1672"/>
      <point x="147" y="1672" type="qcurve" smooth="yes"/>
      <point x="134" y="1672"/>
      <point x="122" y="1686"/>
    </contour>
  </outline>
</glyph>
<glyph name="breveinvertedcomb-stack.case" format="2">
  <anchor x="0" y="1456" name="_top"/>
  <anchor x="0" y="1906" name="top"/>
  <outline>
    <contour>
      <point x="-261" y="1606" type="qcurve"/>
      <point x="-364" y="1672" type="line"/>
      <point x="-327" y="1759"/>
      <point x="-136" y="1906"/>
      <point x="1" y="1906" type="qcurve" smooth="yes"/>
      <point x="123" y="1906"/>
      <point x="319" y="1771"/>
      <point x="365" y="1671" type="qcurve"/>
      <point x="255" y="1606" type="line"/>
      <point x="216" y="1720"/>
      <point x="86" y="1899"/>
      <point x="1" y="1899" type="qcurve" smooth="yes"/>
      <point x="-91" y="1899"/>
      <point x="-222" y="1728"/>
    </contour>
  </outline>
</glyph>
<glyph name="caroncomb.alt" format="2">
  <anchor x="0" y="1052" name="_topright"/>
  <outline>
    <contour>
      <point x="0" y="1092" type="line"/>
      <point x="186" y="1457" type="line"/>
      <point x="193" y="1455" type="line"/>
      <point x="128" y="1057" type="line"/>
    </contour>
  </outline>
</glyph>
<glyph name="diagonalbarO" format="2">
  <advance width="623"/>
  <outline>
    <contour>
      <point x="85" y="-129" type="line"/>
      <point x="135" y="67" type="line"/>
      <point x="135" y="67" type="line"/>
      <point x="325" y="793" type="line"/>
      <point x="321" y="752" type="line"/>
      <point x="135" y="40" type="line"/>
      <point x="135" y="40" type="line"/>
      <point x="92" y="-129" type="line"/>
    </contour>
    <contour>
      <point x="535" y="1598" type="line"/>
      <point x="542" y="1598" type="line"/>
      <point x="492" y="1407" type="line"/>
      <point x="492" y="1407" type="line"/>
      <point x="321" y="752" type="line"/>
      <point x="325" y="793" type="line"/>
      <point x="493" y="1439" type="line"/>
      <point x="493" y="1439" type="line"/>
    </contour>
  </outline>
</glyph>
<glyph name="diagonalbaro" format="2">
  <advance width="512"/>
  <outline>
    <contour>
      <point x="-9" y="-100" type="line"/>
      <point x="74" y="104" type="line"/>
      <point x="74" y="104" type="line"/>
      <point x="275" y="604" type="line"/>
      <point x="254" y="534" type="line"/>
      <point x="70" y="75" type="line"/>
      <point x="70" y="75" type="line"/>
      <point x="-3" y="-103" type="line"/>
    </contour>
    <contour>
      <point x="500" y="1164" type="line"/>
      <point x="506" y="1161" type="line"/>
      <point x="430" y="973" type="line"/>
      <point x="430" y="973" type="line"/>
      <point x="254" y="534" type="line"/>
      <point x="275" y="604" type="line"/>
      <point x="434" y="1001" type="line"/>
      <point x="434" y="1001" type="line"/>
    </contour>
  </outline>
</glyph>
<glyph name="dotbelowcomb.case" format="2">
  <anchor x="0" y="0" name="_bottom"/>
  <anchor x="0" y="-407" name="bottom"/>
  <outline>
    <contour>
      <point x="-23" y="-207" type="qcurve" smooth="yes"/>
      <point x="-23" y="-198"/>
      <point x="-11" y="-185"/>
      <point x="0" y="-185" type="qcurve" smooth="yes"/>
      <point x="11" y="-185"/>
      <point x="23" y="-198"/>
      <point x="23" y="-207" type="qcurve" smooth="yes"/>
      <point x="23" y="-217"/>
      <point x="11" y="-229"/>
      <point x="0" y="-229" type="qcurve" smooth="yes"/>
      <point x="-11" y="-229"/>
      <point x="-23" y="-217"/>
    </contour>
  </outline>
</glyph>
<glyph name="eight.prop" format="2">
  <advance width="794"/>
  <outline>
    <contour>
      <point x="104" y="386" type="qcurve" smooth="yes"/>
      <point x="104" y="552"/>
      <point x="245" y="740"/>
      <point x="377" y="746" type="qcurve"/>
      <point x="377" y="746" type="line"/>
      <point x="269" y="750"/>
      <point x="146" y="926"/>
      <point x="146" y="1087" type="qcurve" smooth="yes"/>
      <point x="146" y="1279"/>
      <point x="276" y="1486"/>
      <point x="397" y="1486" type="qcurve" smooth="yes"/>
      <point x="518" y="1486"/>
      <point x="648" y="1279"/>
      <point x="648" y="1087" type="qcurve" smooth="yes"/>
      <point x="648" y="926"/>
      <point x="525" y="750"/>
      <point x="417" y="746" type="qcurve"/>
      <point x="417" y="746" type="line"/>
      <point x="549" y="740"/>
      <point x="690" y="552"/>
      <point x="690" y="386" type="qcurve" smooth="yes"/>
      <point x="690" y="186"/>
      <point x="538" y="-30"/>
      <point x="397" y="-30" type="qcurve" smooth="yes"/>
      <point x="256" y="-30"/>
      <point x="104" y="186"/>
    </contour>
    <contour>
      <point x="111" y="386" type="qcurve" smooth="yes"/>
      <point x="111" y="273"/>
      <point x="267" y="128"/>
      <point x="397" y="128" type="qcurve" smooth="yes"/>
      <point x="527" y="128"/>
      <point x="683" y="273"/>
      <point x="683" y="386" type="qcurve" smooth="yes"/>
      <point x="683" y="516"/>
      <point x="527" y="666"/>
      <point x="397" y="666" type="qcurve" smooth="yes"/>
      <point x="267" y="666"/>
      <point x="111" y="516"/>
    </contour>
    <contour>
      <point x="153" y="1087" type="qcurve" smooth="yes"/>
      <point x="153" y="967"/>
      <point x="287" y="824"/>
      <point x="397" y="824" type="qcurve" smooth="yes"/>
      <point x="507" y="824"/>
      <point x="641" y="967"/>
      <point x="641" y="1087" type="qcurve" smooth="yes"/>
      <point x="641" y="1187"/>
      <point x="507" y="1328"/>
      <point x="397" y="1328" type="qcurve" smooth="yes"/>
      <point x="287" y="1328"/>
      <point x="153" y="1187"/>
    </contour>
  </outline>
</glyph>
<glyph name="hungarumlautcomb-stack.case" format="2">
  <anchor x="0" y="1456" name="_top"/>
  <anchor x="0" y="1947" name="top"/>
  <outline>
    <contour>
      <point x="-263" y="1654" type="line"/>
      <point x="24" y="1947" type="line"/>
      <point x="29" y="1943" type="line"/>
      <point x="-136" y="1595" type="line"/>
    </contour>
    <contour>
      <point x="71" y="1654" type="line"/>
      <point x="358" y="1947" type="line"/>
      <point x="363" y="1943" type="line"/>
      <point x="198" y="1595" type="line"/>
    </contour>
  </outline>
</glyph>
<glyph name="sha.bgr" format="2">
  <advance width="1218"/>
  <anchor x="1068" y="0" name="cy_descender"/>
  <outline>
    <contour>
      <point x="1072" y="1052" type="line"/>
      <point x="1072" y="0" type="line"/>
      <point x="1065" y="0" type="line"/>
      <point x="1065" y="310" type="line"/>
      <point x="1065" y="1052" type="line"/>
    </contour>
    <contour>
      <point x="606" y="346" type="qcurve" smooth="yes"/>
      <point x="606" y="1052" type="line"/>
      <point x="613" y="1052" type="line"/>
      <point x="613" y="345" type="line" smooth="yes"/>
      <point x="613" y="237"/>
      <point x="722" y="136"/>
      <point x="826" y="136" type="qcurve" smooth="yes"/>
      <point x="908" y="136"/>
      <point x="1027" y="234"/>
      <point x="1068" y="308" type="qcurve"/>
      <point x="1068" y="136" type="line"/>
      <point x="1016" y="66"/>
      <point x="882" y="-20"/>
      <point x="795" y="-20" type="qcurve" smooth="yes"/>
      <point x="689" y="-20"/>
      <point x="606" y="114"/>
    </contour>
    <contour>
      <point x="611" y="137" type="line"/>
      <point x="558" y="66"/>
      <point x="424" y="-20"/>
      <point x="337" y="-20" type="qcurve" smooth="yes"/>
      <point x="231" y="-20"/>
      <point x="148" y="114"/>
      <point x="148" y="346" type="qcurve" smooth="yes"/>
      <point x="148" y="1052" type="line"/>
      <point x="155" y="1052" type="line"/>
      <point x="155" y="345" type="line" smooth="yes"/>
      <point x="155" y="237"/>
      <point x="264" y="136"/>
      <point x="368" y="136" type="qcurve" smooth="yes"/>
      <point x="450" y="136"/>
      <point x="569" y="234"/>
      <point x="610" y="308" type="qcurve"/>
    </contour>
  </outline>
</glyph>
<glyph name="soft.bgr" format="2">
  <advance width="731"/>
  <outline>
    <contour>
      <point x="148" y="351" type="qcurve" smooth="yes"/>
      <point x="148" y="1052" type="line"/>
      <point x="155" y="1052" type="line"/>
      <point x="155" y="351" type="line" smooth="yes"/>
      <point x="155" y="252"/>
      <point x="267" y="123"/>
      <point x="407" y="123" type="qcurve" smooth="yes"/>
      <point x="549" y="123"/>
      <point x="664" y="252"/>
      <point x="664" y="351" type="qcurve" smooth="yes"/>
      <point x="664" y="447"/>
      <point x="558" y="573"/>
      <point x="427" y="573" type="qcurve" smooth="yes"/>
      <point x="152" y="573" type="line"/>
      <point x="152" y="718" type="line"/>
      <point x="427" y="718" type="line" smooth="yes"/>
      <point x="565" y="718"/>
      <point x="671" y="521"/>
      <point x="671" y="351" type="qcurve" smooth="yes"/>
      <point x="671" y="177"/>
      <point x="550" y="-30"/>
      <point x="407" y="-30" type="qcurve" smooth="yes"/>
      <point x="264" y="-30"/>
      <point x="148" y="177"/>
    </contour>
  </outline>
</glyph>
<glyph name="three.prop" format="2">
  <advance width="685"/>
  <outline>
    <contour>
      <point x="17" y="380" type="qcurve" smooth="yes"/>
      <point x="17" y="390" type="line"/>
      <point x="24" y="390" type="line"/>
      <point x="24" y="380" type="line" smooth="yes"/>
      <point x="24" y="258"/>
      <point x="181" y="128"/>
      <point x="316" y="128" type="qcurve" smooth="yes"/>
      <point x="440" y="128"/>
      <point x="606" y="265"/>
      <point x="606" y="400" type="qcurve" smooth="yes"/>
      <point x="606" y="534"/>
      <point x="432" y="682"/>
      <point x="278" y="682" type="qcurve" smooth="yes"/>
      <point x="163" y="682" type="line"/>
      <point x="163" y="836" type="line"/>
      <point x="268" y="836" type="line" smooth="yes"/>
      <point x="405" y="836"/>
      <point x="556" y="971"/>
      <point x="556" y="1090" type="qcurve" smooth="yes"/>
      <point x="556" y="1210"/>
      <point x="426" y="1328"/>
      <point x="316" y="1328" type="qcurve" smooth="yes"/>
      <point x="200" y="1328"/>
      <point x="64" y="1210"/>
      <point x="64" y="1100" type="qcurve" smooth="yes"/>
      <point x="64" y="1090" type="line"/>
      <point x="57" y="1090" type="line"/>
      <point x="57" y="1100" type="line" smooth="yes"/>
      <point x="57" y="1286"/>
      <point x="194" y="1486"/>
      <point x="316" y="1486" type="qcurve" smooth="yes"/>
      <point x="431" y="1486"/>
      <point x="563" y="1288"/>
      <point x="563" y="1090" type="qcurve" smooth="yes"/>
      <point x="563" y="966"/>
      <point x="504" y="806"/>
      <point x="421" y="766" type="qcurve"/>
      <point x="421" y="762" type="line"/>
      <point x="504" y="740"/>
      <point x="613" y="567"/>
      <point x="613" y="400" type="qcurve" smooth="yes"/>
      <point x="613" y="170"/>
      <point x="441" y="-30"/>
      <point x="316" y="-30" type="qcurve" smooth="yes"/>
      <point x="176" y="-30"/>
      <point x="17" y="170"/>
    </contour>
  </outline>
</glyph>
<glyph name="zero.prop" format="2">
  <advance width="782"/>
  <outline>
    <contour>
      <point x="110" y="460" type="qcurve" smooth="yes"/>
      <point x="110" y="996" type="line" smooth="yes"/>
      <point x="110" y="1250"/>
      <point x="249" y="1486"/>
      <point x="391" y="1486" type="qcurve" smooth="yes"/>
      <point x="533" y="1486"/>
      <point x="672" y="1250"/>
      <point x="672" y="996" type="qcurve" smooth="yes"/>
      <point x="672" y="460" type="line" smooth="yes"/>
      <point x="672" y="210"/>
      <point x="535" y="-30"/>
      <point x="391" y="-30" type="qcurve" smooth="yes"/>
      <point x="247" y="-30"/>
      <point x="110" y="210"/>
    </contour>
    <contour>
      <point x="117" y="450" type="line" smooth="yes"/>
      <point x="117" y="310"/>
      <point x="251" y="128"/>
      <point x="391" y="128" type="qcurve" smooth="yes"/>
      <point x="531" y="128"/>
      <point x="665" y="310"/>
      <point x="665" y="450" type="qcurve" smooth="yes"/>
      <point x="665" y="1006" type="line" smooth="yes"/>
      <point x="665" y="1146"/>
      <point x="531" y="1328"/>
      <point x="391" y="1328" type="qcurve" smooth="yes"/>
      <point x="251" y="1328"/>
      <point x="117" y="1146"/>
      <point x="117" y="1006" type="qcurve" smooth="yes"/>
    </contour>
  </outline>
</glyph>
<glyph name="zhe.bgr" format="2">
  <advance width="1530"/>
  <outline>
    <contour>
      <point x="82" y="0" type="line"/>
      <point x="529" y="613" type="line"/>
      <point x="530" y="605" type="line"/>
      <point x="90" y="0" type="line"/>
    </contour>
    <contour>
      <point x="762" y="0" type="line"/>
      <point x="762" y="1536" type="line"/>
      <point x="769" y="1536" type="line"/>
      <point x="769" y="0" type="line"/>
    </contour>
    <contour>
      <point x="1441" y="0" type="line"/>
      <point x="1001" y="605" type="line"/>
      <point x="1002" y="613" type="line"/>
      <point x="1449" y="0" type="line"/>
    </contour>
    <contour>
      <point x="29" y="1052" type="line"/>
      <point x="240" y="1052" type="line"/>
      <point x="763" y="465" type="line"/>
      <point x="763" y="249" type="line"/>
    </contour>
    <contour>
      <point x="1502" y="1052" type="line"/>
      <point x="768" y="249" type="line"/>
      <point x="768" y="465" type="line"/>
      <point x="1291" y="1052" type="line"/>
    </contour>
  </outline>
</glyph>
